<svg width="747" height="101" viewBox="0 0 747 101" fill="none" xmlns="http://www.w3.org/2000/svg">
<g filter="url(#filter0_d_11_6)">
<path d="M4.6 71V0.999995H18.3V58.5H49.1V71H4.6ZM86.6109 71L86.2109 60.9V45.7C86.2109 42.7 85.8776 40.1333 85.2109 38C84.6109 35.8667 83.6109 34.2333 82.2109 33.1C80.8776 31.9 79.0443 31.3 76.7109 31.3C74.5776 31.3 72.6443 31.7667 70.9109 32.7C69.1776 33.6333 67.7109 35.0667 66.5109 37L54.9109 33C55.8443 30.8667 57.2109 28.8 59.0109 26.8C60.8109 24.7333 63.1443 23.0667 66.0109 21.8C68.9443 20.4667 72.5109 19.8 76.7109 19.8C81.7776 19.8 85.9776 20.7667 89.3109 22.7C92.7109 24.6333 95.2109 27.3667 96.8109 30.9C98.4776 34.3667 99.2776 38.5 99.2109 43.3L98.9109 71H86.6109ZM72.6109 72.2C66.6109 72.2 61.9443 70.8667 58.6109 68.2C55.3443 65.5333 53.7109 61.7667 53.7109 56.9C53.7109 51.5667 55.4776 47.5667 59.0109 44.9C62.6109 42.1667 67.6443 40.8 74.1109 40.8H86.8109V50.6H78.7109C74.3776 50.6 71.3776 51.1333 69.7109 52.2C68.0443 53.2 67.2109 54.6333 67.2109 56.5C67.2109 57.9667 67.8776 59.1333 69.2109 60C70.5443 60.8 72.4109 61.2 74.8109 61.2C77.0109 61.2 78.9443 60.7 80.6109 59.7C82.3443 58.6333 83.7109 57.3 84.7109 55.7C85.7109 54.0333 86.2109 52.3333 86.2109 50.6H89.4109C89.4109 57.4 88.1109 62.7 85.5109 66.5C82.9776 70.3 78.6776 72.2 72.6109 72.2ZM119.031 44.7C119.031 39.3 120.065 34.8333 122.131 31.3C124.265 27.7667 126.965 25.1333 130.231 23.4C133.565 21.6667 137.031 20.8 140.631 20.8V33.6C137.565 33.6 134.665 33.9667 131.931 34.7C129.265 35.4333 127.098 36.6333 125.431 38.3C123.765 39.9667 122.931 42.1 122.931 44.7H119.031ZM109.731 71V21H122.931V71H109.731ZM177.822 71L177.422 60.9V45.7C177.422 42.7 177.089 40.1333 176.422 38C175.822 35.8667 174.822 34.2333 173.422 33.1C172.089 31.9 170.255 31.3 167.922 31.3C165.789 31.3 163.855 31.7667 162.122 32.7C160.389 33.6333 158.922 35.0667 157.722 37L146.122 33C147.055 30.8667 148.422 28.8 150.222 26.8C152.022 24.7333 154.355 23.0667 157.222 21.8C160.155 20.4667 163.722 19.8 167.922 19.8C172.989 19.8 177.189 20.7667 180.522 22.7C183.922 24.6333 186.422 27.3667 188.022 30.9C189.689 34.3667 190.489 38.5 190.422 43.3L190.122 71H177.822ZM163.822 72.2C157.822 72.2 153.155 70.8667 149.822 68.2C146.555 65.5333 144.922 61.7667 144.922 56.9C144.922 51.5667 146.689 47.5667 150.222 44.9C153.822 42.1667 158.855 40.8 165.322 40.8H178.022V50.6H169.922C165.589 50.6 162.589 51.1333 160.922 52.2C159.255 53.2 158.422 54.6333 158.422 56.5C158.422 57.9667 159.089 59.1333 160.422 60C161.755 60.8 163.622 61.2 166.022 61.2C168.222 61.2 170.155 60.7 171.822 59.7C173.555 58.6333 174.922 57.3 175.922 55.7C176.922 54.0333 177.422 52.3333 177.422 50.6H180.622C180.622 57.4 179.322 62.7 176.722 66.5C174.189 70.3 169.889 72.2 163.822 72.2ZM216.175 71L235.175 21H248.775L228.275 71H216.175ZM215.075 71L194.575 21H208.175L227.175 71H215.075ZM276.179 72.2C271.246 72.2 266.879 71.1 263.079 68.9C259.279 66.6333 256.279 63.5333 254.079 59.6C251.946 55.6667 250.879 51.1333 250.879 46C250.879 40.8667 251.979 36.3333 254.179 32.4C256.446 28.4667 259.512 25.4 263.379 23.2C267.312 20.9333 271.812 19.8 276.879 19.8C281.279 19.8 285.312 20.9667 288.979 23.3C292.712 25.5667 295.679 28.9333 297.879 33.4C300.146 37.8 301.279 43.1667 301.279 49.5H263.379L264.579 48.3C264.579 50.7667 265.179 52.9333 266.379 54.8C267.646 56.6 269.246 58 271.179 59C273.179 59.9333 275.312 60.4 277.579 60.4C280.312 60.4 282.546 59.8333 284.279 58.7C286.012 57.5 287.346 55.9667 288.279 54.1L300.079 58.7C298.679 61.5 296.846 63.9333 294.579 66C292.379 68 289.746 69.5333 286.679 70.6C283.612 71.6667 280.112 72.2 276.179 72.2ZM265.279 40.9L264.079 39.7H288.179L287.079 40.9C287.079 38.5 286.512 36.6 285.379 35.2C284.246 33.7333 282.846 32.6667 281.179 32C279.579 31.3333 278.012 31 276.479 31C274.946 31 273.312 31.3333 271.579 32C269.846 32.6667 268.346 33.7333 267.079 35.2C265.879 36.6 265.279 38.5 265.279 40.9ZM308.95 71V0.999995H322.15V71H308.95Z" fill="#DADADA"/>
<path d="M359.288 71V0.999995H385.288C390.221 0.999995 394.588 2 398.388 4C402.188 5.93333 405.154 8.66666 407.288 12.2C409.421 15.6667 410.487 19.7 410.487 24.3C410.487 28.8333 409.454 32.8667 407.388 36.4C405.321 39.9333 402.488 42.7333 398.888 44.8C395.288 46.8 391.121 47.8 386.388 47.8H372.988V71H359.288ZM372.988 35.2H386.088C389.154 35.2 391.654 34.2 393.588 32.2C395.588 30.1333 396.588 27.5 396.588 24.3C396.588 21.1 395.488 18.5 393.288 16.5C391.154 14.5 388.388 13.5 384.988 13.5H372.988V35.2ZM446.865 71L446.465 60.9V45.7C446.465 42.7 446.132 40.1333 445.465 38C444.865 35.8667 443.865 34.2333 442.465 33.1C441.132 31.9 439.298 31.3 436.965 31.3C434.832 31.3 432.898 31.7667 431.165 32.7C429.432 33.6333 427.965 35.0667 426.765 37L415.165 33C416.098 30.8667 417.465 28.8 419.265 26.8C421.065 24.7333 423.398 23.0667 426.265 21.8C429.198 20.4667 432.765 19.8 436.965 19.8C442.032 19.8 446.232 20.7667 449.565 22.7C452.965 24.6333 455.465 27.3667 457.065 30.9C458.732 34.3667 459.532 38.5 459.465 43.3L459.165 71H446.865ZM432.865 72.2C426.865 72.2 422.198 70.8667 418.865 68.2C415.598 65.5333 413.965 61.7667 413.965 56.9C413.965 51.5667 415.732 47.5667 419.265 44.9C422.865 42.1667 427.898 40.8 434.365 40.8H447.065V50.6H438.965C434.632 50.6 431.632 51.1333 429.965 52.2C428.298 53.2 427.465 54.6333 427.465 56.5C427.465 57.9667 428.132 59.1333 429.465 60C430.798 60.8 432.665 61.2 435.065 61.2C437.265 61.2 439.198 60.7 440.865 59.7C442.598 58.6333 443.965 57.3 444.965 55.7C445.965 54.0333 446.465 52.3333 446.465 50.6H449.665C449.665 57.4 448.365 62.7 445.765 66.5C443.232 70.3 438.932 72.2 432.865 72.2ZM478.618 92.2C476.818 92.2 474.818 91.8333 472.618 91.1C470.485 90.4333 468.585 89.6333 466.918 88.7L471.818 78C472.951 78.6 473.985 79.0667 474.918 79.4C475.918 79.8 476.785 80 477.518 80C478.918 80 480.151 79.6 481.218 78.8C482.285 78.0667 483.151 76.9667 483.818 75.5L489.718 61.6L505.618 21H520.118L497.418 75.3C496.018 78.6333 494.551 81.5667 493.018 84.1C491.485 86.7 489.585 88.7 487.318 90.1C485.118 91.5 482.218 92.2 478.618 92.2ZM486.218 71L463.318 21H477.818L494.518 61.6L498.818 71H486.218Z" fill="#0061FF"/>
<path d="M574.235 71V0.999995H587.935V71H574.235ZM528.135 71V0.899997H541.835V71H528.135ZM538.335 41.5V28.9H580.735V41.5H538.335ZM623.835 72.2C618.902 72.2 614.535 71.1 610.735 68.9C606.935 66.6333 603.935 63.5333 601.735 59.6C599.602 55.6667 598.535 51.1333 598.535 46C598.535 40.8667 599.635 36.3333 601.835 32.4C604.102 28.4667 607.168 25.4 611.035 23.2C614.968 20.9333 619.468 19.8 624.535 19.8C628.935 19.8 632.968 20.9667 636.635 23.3C640.368 25.5667 643.335 28.9333 645.535 33.4C647.802 37.8 648.935 43.1667 648.935 49.5H611.035L612.235 48.3C612.235 50.7667 612.835 52.9333 614.035 54.8C615.302 56.6 616.902 58 618.835 59C620.835 59.9333 622.968 60.4 625.235 60.4C627.968 60.4 630.202 59.8333 631.935 58.7C633.668 57.5 635.002 55.9667 635.935 54.1L647.735 58.7C646.335 61.5 644.502 63.9333 642.235 66C640.035 68 637.402 69.5333 634.335 70.6C631.268 71.6667 627.768 72.2 623.835 72.2ZM612.935 40.9L611.735 39.7H635.835L634.735 40.9C634.735 38.5 634.168 36.6 633.035 35.2C631.902 33.7333 630.502 32.6667 628.835 32C627.235 31.3333 625.668 31 624.135 31C622.602 31 620.968 31.3333 619.235 32C617.502 32.6667 616.002 33.7333 614.735 35.2C613.535 36.6 612.935 38.5 612.935 40.9ZM665.906 44.7C665.906 39.3 666.94 34.8333 669.006 31.3C671.14 27.7667 673.84 25.1333 677.106 23.4C680.44 21.6667 683.906 20.8 687.506 20.8V33.6C684.44 33.6 681.54 33.9667 678.806 34.7C676.14 35.4333 673.973 36.6333 672.306 38.3C670.64 39.9667 669.806 42.1 669.806 44.7H665.906ZM656.606 71V21H669.806V71H656.606ZM717.097 72.2C712.164 72.2 707.797 71.1 703.997 68.9C700.197 66.6333 697.197 63.5333 694.997 59.6C692.864 55.6667 691.797 51.1333 691.797 46C691.797 40.8667 692.897 36.3333 695.097 32.4C697.364 28.4667 700.43 25.4 704.297 23.2C708.23 20.9333 712.73 19.8 717.797 19.8C722.197 19.8 726.23 20.9667 729.897 23.3C733.63 25.5667 736.597 28.9333 738.797 33.4C741.064 37.8 742.197 43.1667 742.197 49.5H704.297L705.497 48.3C705.497 50.7667 706.097 52.9333 707.297 54.8C708.564 56.6 710.164 58 712.097 59C714.097 59.9333 716.23 60.4 718.497 60.4C721.23 60.4 723.464 59.8333 725.197 58.7C726.93 57.5 728.264 55.9667 729.197 54.1L740.997 58.7C739.597 61.5 737.764 63.9333 735.497 66C733.297 68 730.664 69.5333 727.597 70.6C724.53 71.6667 721.03 72.2 717.097 72.2ZM706.197 40.9L704.997 39.7H729.097L727.997 40.9C727.997 38.5 727.43 36.6 726.297 35.2C725.164 33.7333 723.764 32.6667 722.097 32C720.497 31.3333 718.93 31 717.397 31C715.864 31 714.23 31.3333 712.497 32C710.764 32.6667 709.264 33.7333 707.997 35.2C706.797 36.6 706.197 38.5 706.197 40.9Z" fill="#EAB308"/>
</g>
<defs>
<filter id="filter0_d_11_6" x="0.599976" y="0.899996" width="745.597" height="99.3" filterUnits="userSpaceOnUse" color-interpolation-filters="sRGB">
<feFlood flood-opacity="0" result="BackgroundImageFix"/>
<feColorMatrix in="SourceAlpha" type="matrix" values="0 0 0 0 0 0 0 0 0 0 0 0 0 0 0 0 0 0 127 0" result="hardAlpha"/>
<feOffset dy="4"/>
<feGaussianBlur stdDeviation="2"/>
<feComposite in2="hardAlpha" operator="out"/>
<feColorMatrix type="matrix" values="0 0 0 0 0 0 0 0 0 0 0 0 0 0 0 0 0 0 0.25 0"/>
<feBlend mode="normal" in2="BackgroundImageFix" result="effect1_dropShadow_11_6"/>
<feBlend mode="normal" in="SourceGraphic" in2="effect1_dropShadow_11_6" result="shape"/>
</filter>
</defs>
</svg>
