<svg width="537" height="68" viewBox="0 0 537 68" fill="none" xmlns="http://www.w3.org/2000/svg">
<style>
  #path1 { fill: #000 } 
  
  @media (prefers-color-scheme:dark) { 
    #path1 { fill: #fff } 
  }
</style>
<path id="path1" d="M32.6321 45.62V55H0.222071V6.49H11.1421V45.62H32.6321ZM53.8557 47.72C54.8824 47.72 55.8624 47.6967 56.7957 47.65C57.7291 47.6033 58.4757 47.5333 59.0357 47.44V39.53C58.6157 39.4367 57.9857 39.3433 57.1457 39.25C56.3057 39.1567 55.5357 39.11 54.8357 39.11C53.8557 39.11 52.9224 39.18 52.0357 39.32C51.1957 39.4133 50.4491 39.6233 49.7957 39.95C49.1424 40.2767 48.6291 40.72 48.2557 41.28C47.8824 41.84 47.6957 42.54 47.6957 43.38C47.6957 45.0133 48.2324 46.1567 49.3057 46.81C50.4257 47.4167 51.9424 47.72 53.8557 47.72ZM53.0157 17.2C56.0957 17.2 58.6624 17.55 60.7157 18.25C62.7691 18.95 64.4024 19.9533 65.6157 21.26C66.8757 22.5667 67.7624 24.1533 68.2757 26.02C68.7891 27.8867 69.0457 29.9633 69.0457 32.25V53.95C67.5524 54.2767 65.4757 54.65 62.8157 55.07C60.1557 55.5367 56.9357 55.77 53.1557 55.77C50.7757 55.77 48.6057 55.56 46.6457 55.14C44.7324 54.72 43.0757 54.0433 41.6757 53.11C40.2757 52.13 39.2024 50.87 38.4557 49.33C37.7091 47.79 37.3357 45.9 37.3357 43.66C37.3357 41.5133 37.7557 39.6933 38.5957 38.2C39.4824 36.7067 40.6491 35.5167 42.0957 34.63C43.5424 33.7433 45.1991 33.1133 47.0657 32.74C48.9324 32.32 50.8691 32.11 52.8757 32.11C54.2291 32.11 55.4191 32.18 56.4457 32.32C57.5191 32.4133 58.3824 32.5533 59.0357 32.74V31.76C59.0357 29.9867 58.4991 28.5633 57.4257 27.49C56.3524 26.4167 54.4857 25.88 51.8257 25.88C50.0524 25.88 48.3024 26.02 46.5757 26.3C44.8491 26.5333 43.3557 26.8833 42.0957 27.35L40.7657 18.95C41.3724 18.7633 42.1191 18.5767 43.0057 18.39C43.9391 18.1567 44.9424 17.97 46.0157 17.83C47.0891 17.6433 48.2091 17.5033 49.3757 17.41C50.5891 17.27 51.8024 17.2 53.0157 17.2ZM100.667 27.42C99.7338 27.1867 98.6371 26.9533 97.3771 26.72C96.1171 26.44 94.7638 26.3 93.3171 26.3C92.6638 26.3 91.8705 26.37 90.9371 26.51C90.0505 26.6033 89.3738 26.72 88.9071 26.86V55H78.4771V20.14C80.3438 19.4867 82.5371 18.88 85.0571 18.32C87.6238 17.7133 90.4705 17.41 93.5971 17.41C94.1571 17.41 94.8338 17.4567 95.6272 17.55C96.4205 17.5967 97.2138 17.69 98.0071 17.83C98.8005 17.9233 99.5938 18.0633 100.387 18.25C101.18 18.39 101.857 18.5767 102.417 18.81L100.667 27.42ZM121.395 47.72C122.421 47.72 123.401 47.6967 124.335 47.65C125.268 47.6033 126.015 47.5333 126.575 47.44V39.53C126.155 39.4367 125.525 39.3433 124.685 39.25C123.845 39.1567 123.075 39.11 122.375 39.11C121.395 39.11 120.461 39.18 119.575 39.32C118.735 39.4133 117.988 39.6233 117.335 39.95C116.681 40.2767 116.168 40.72 115.795 41.28C115.421 41.84 115.235 42.54 115.235 43.38C115.235 45.0133 115.771 46.1567 116.845 46.81C117.965 47.4167 119.481 47.72 121.395 47.72ZM120.555 17.2C123.635 17.2 126.201 17.55 128.255 18.25C130.308 18.95 131.941 19.9533 133.155 21.26C134.415 22.5667 135.301 24.1533 135.815 26.02C136.328 27.8867 136.585 29.9633 136.585 32.25V53.95C135.091 54.2767 133.015 54.65 130.355 55.07C127.695 55.5367 124.475 55.77 120.695 55.77C118.315 55.77 116.145 55.56 114.185 55.14C112.271 54.72 110.615 54.0433 109.215 53.11C107.815 52.13 106.741 50.87 105.995 49.33C105.248 47.79 104.875 45.9 104.875 43.66C104.875 41.5133 105.295 39.6933 106.135 38.2C107.021 36.7067 108.188 35.5167 109.635 34.63C111.081 33.7433 112.738 33.1133 114.605 32.74C116.471 32.32 118.408 32.11 120.415 32.11C121.768 32.11 122.958 32.18 123.985 32.32C125.058 32.4133 125.921 32.5533 126.575 32.74V31.76C126.575 29.9867 126.038 28.5633 124.965 27.49C123.891 26.4167 122.025 25.88 119.365 25.88C117.591 25.88 115.841 26.02 114.115 26.3C112.388 26.5333 110.895 26.8833 109.635 27.35L108.305 18.95C108.911 18.7633 109.658 18.5767 110.545 18.39C111.478 18.1567 112.481 17.97 113.555 17.83C114.628 17.6433 115.748 17.5033 116.915 17.41C118.128 17.27 119.341 17.2 120.555 17.2ZM155.138 55C152.758 50.3333 150.331 44.8733 147.858 38.62C145.431 32.3667 143.121 25.5533 140.928 18.18H151.988C152.454 20 152.991 21.9833 153.598 24.13C154.251 26.23 154.904 28.3767 155.558 30.57C156.258 32.7167 156.934 34.8167 157.588 36.87C158.288 38.9233 158.964 40.79 159.618 42.47C160.224 40.79 160.878 38.9233 161.578 36.87C162.278 34.8167 162.954 32.7167 163.608 30.57C164.308 28.3767 164.961 26.23 165.568 24.13C166.221 21.9833 166.781 20 167.248 18.18H178.028C175.834 25.5533 173.501 32.3667 171.028 38.62C168.601 44.8733 166.198 50.3333 163.818 55H155.138ZM180.907 36.87C180.907 33.6033 181.397 30.7567 182.377 28.33C183.404 25.8567 184.734 23.8033 186.367 22.17C188 20.5367 189.867 19.3 191.967 18.46C194.114 17.62 196.307 17.2 198.547 17.2C203.774 17.2 207.904 18.81 210.937 22.03C213.97 25.2033 215.487 29.8933 215.487 36.1C215.487 36.7067 215.464 37.3833 215.417 38.13C215.37 38.83 215.324 39.46 215.277 40.02H191.617C191.85 42.1667 192.854 43.87 194.627 45.13C196.4 46.39 198.78 47.02 201.767 47.02C203.68 47.02 205.547 46.8567 207.367 46.53C209.234 46.1567 210.75 45.7133 211.917 45.2L213.317 53.67C212.757 53.95 212.01 54.23 211.077 54.51C210.144 54.79 209.094 55.0233 207.927 55.21C206.807 55.4433 205.594 55.63 204.287 55.77C202.98 55.91 201.674 55.98 200.367 55.98C197.054 55.98 194.16 55.49 191.687 54.51C189.26 53.53 187.23 52.2 185.597 50.52C184.01 48.7933 182.82 46.7633 182.027 44.43C181.28 42.0967 180.907 39.5767 180.907 36.87ZM205.407 32.88C205.36 31.9933 205.197 31.13 204.917 30.29C204.684 29.45 204.287 28.7033 203.727 28.05C203.214 27.3967 202.537 26.86 201.697 26.44C200.904 26.02 199.9 25.81 198.687 25.81C197.52 25.81 196.517 26.02 195.677 26.44C194.837 26.8133 194.137 27.3267 193.577 27.98C193.017 28.6333 192.574 29.4033 192.247 30.29C191.967 31.13 191.757 31.9933 191.617 32.88H205.407ZM238.236 55.7C235.202 55.6533 232.729 55.3267 230.816 54.72C228.949 54.1133 227.456 53.2733 226.336 52.2C225.262 51.08 224.516 49.75 224.096 48.21C223.722 46.6233 223.536 44.85 223.536 42.89V2.36L233.966 0.679998V40.79C233.966 41.7233 234.036 42.5633 234.176 43.31C234.316 44.0567 234.572 44.6867 234.946 45.2C235.366 45.7133 235.949 46.1333 236.696 46.46C237.442 46.7867 238.446 46.9967 239.706 47.09L238.236 55.7ZM277.761 5.93C284.994 5.93 290.547 7.21333 294.421 9.78C298.294 12.3 300.231 16.4533 300.231 22.24C300.231 28.0733 298.271 32.2967 294.351 34.91C290.431 37.4767 284.831 38.76 277.551 38.76H274.121V55H263.201V7.19C265.581 6.72333 268.101 6.39667 270.761 6.21C273.421 6.02333 275.754 5.93 277.761 5.93ZM278.461 15.24C277.667 15.24 276.874 15.2633 276.081 15.31C275.334 15.3567 274.681 15.4033 274.121 15.45V29.45H277.551C281.331 29.45 284.177 28.9367 286.091 27.91C288.004 26.8833 288.961 24.97 288.961 22.17C288.961 20.8167 288.704 19.6967 288.191 18.81C287.724 17.9233 287.024 17.2233 286.091 16.71C285.204 16.15 284.107 15.7767 282.801 15.59C281.494 15.3567 280.047 15.24 278.461 15.24ZM320.252 47.72C321.279 47.72 322.259 47.6967 323.192 47.65C324.126 47.6033 324.872 47.5333 325.432 47.44V39.53C325.012 39.4367 324.382 39.3433 323.542 39.25C322.702 39.1567 321.932 39.11 321.232 39.11C320.252 39.11 319.319 39.18 318.432 39.32C317.592 39.4133 316.846 39.6233 316.192 39.95C315.539 40.2767 315.026 40.72 314.652 41.28C314.279 41.84 314.092 42.54 314.092 43.38C314.092 45.0133 314.629 46.1567 315.702 46.81C316.822 47.4167 318.339 47.72 320.252 47.72ZM319.412 17.2C322.492 17.2 325.059 17.55 327.112 18.25C329.166 18.95 330.799 19.9533 332.012 21.26C333.272 22.5667 334.159 24.1533 334.672 26.02C335.186 27.8867 335.442 29.9633 335.442 32.25V53.95C333.949 54.2767 331.872 54.65 329.212 55.07C326.552 55.5367 323.332 55.77 319.552 55.77C317.172 55.77 315.002 55.56 313.042 55.14C311.129 54.72 309.472 54.0433 308.072 53.11C306.672 52.13 305.599 50.87 304.852 49.33C304.106 47.79 303.732 45.9 303.732 43.66C303.732 41.5133 304.152 39.6933 304.992 38.2C305.879 36.7067 307.046 35.5167 308.492 34.63C309.939 33.7433 311.596 33.1133 313.462 32.74C315.329 32.32 317.266 32.11 319.272 32.11C320.626 32.11 321.816 32.18 322.842 32.32C323.916 32.4133 324.779 32.5533 325.432 32.74V31.76C325.432 29.9867 324.896 28.5633 323.822 27.49C322.749 26.4167 320.882 25.88 318.222 25.88C316.449 25.88 314.699 26.02 312.972 26.3C311.246 26.5333 309.752 26.8833 308.492 27.35L307.162 18.95C307.769 18.7633 308.516 18.5767 309.402 18.39C310.336 18.1567 311.339 17.97 312.412 17.83C313.486 17.6433 314.606 17.5033 315.772 17.41C316.986 17.27 318.199 17.2 319.412 17.2ZM376.675 18.18C374.575 25.2733 372.382 31.9233 370.095 38.13C367.808 44.3367 365.312 50.3567 362.605 56.19C361.625 58.29 360.645 60.0633 359.665 61.51C358.685 63.0033 357.612 64.2167 356.445 65.15C355.278 66.13 353.948 66.83 352.455 67.25C351.008 67.7167 349.305 67.95 347.345 67.95C345.712 67.95 344.195 67.7867 342.795 67.46C341.442 67.18 340.322 66.8533 339.435 66.48L341.255 58.15C342.328 58.5233 343.285 58.78 344.125 58.92C344.965 59.06 345.852 59.13 346.785 59.13C348.652 59.13 350.075 58.6167 351.055 57.59C352.082 56.61 352.945 55.2333 353.645 53.46C351.265 48.7933 348.885 43.5667 346.505 37.78C344.125 31.9467 341.885 25.4133 339.785 18.18H350.845C351.312 20 351.848 21.9833 352.455 24.13C353.108 26.23 353.785 28.3767 354.485 30.57C355.185 32.7167 355.885 34.8167 356.585 36.87C357.332 38.9233 358.032 40.79 358.685 42.47C359.292 40.79 359.922 38.9233 360.575 36.87C361.228 34.8167 361.858 32.7167 362.465 30.57C363.118 28.3767 363.725 26.23 364.285 24.13C364.892 21.9833 365.428 20 365.895 18.18H376.675Z" fill="white"/>
<path d="M412.226 6.49H423.146V55H412.226V34.42H393.886V55H382.966V6.49H393.886V25.04H412.226V6.49ZM431.922 36.87C431.922 33.6033 432.412 30.7567 433.392 28.33C434.419 25.8567 435.749 23.8033 437.382 22.17C439.016 20.5367 440.882 19.3 442.982 18.46C445.129 17.62 447.322 17.2 449.562 17.2C454.789 17.2 458.919 18.81 461.952 22.03C464.986 25.2033 466.502 29.8933 466.502 36.1C466.502 36.7067 466.479 37.3833 466.432 38.13C466.386 38.83 466.339 39.46 466.292 40.02H442.632C442.866 42.1667 443.869 43.87 445.642 45.13C447.416 46.39 449.796 47.02 452.782 47.02C454.696 47.02 456.562 46.8567 458.382 46.53C460.249 46.1567 461.766 45.7133 462.932 45.2L464.332 53.67C463.772 53.95 463.026 54.23 462.092 54.51C461.159 54.79 460.109 55.0233 458.942 55.21C457.822 55.4433 456.609 55.63 455.302 55.77C453.996 55.91 452.689 55.98 451.382 55.98C448.069 55.98 445.176 55.49 442.702 54.51C440.276 53.53 438.246 52.2 436.612 50.52C435.026 48.7933 433.836 46.7633 433.042 44.43C432.296 42.0967 431.922 39.5767 431.922 36.87ZM456.422 32.88C456.376 31.9933 456.212 31.13 455.932 30.29C455.699 29.45 455.302 28.7033 454.742 28.05C454.229 27.3967 453.552 26.86 452.712 26.44C451.919 26.02 450.916 25.81 449.702 25.81C448.536 25.81 447.532 26.02 446.692 26.44C445.852 26.8133 445.152 27.3267 444.592 27.98C444.032 28.6333 443.589 29.4033 443.262 30.29C442.982 31.13 442.772 31.9933 442.632 32.88H456.422ZM496.741 27.42C495.808 27.1867 494.711 26.9533 493.451 26.72C492.191 26.44 490.838 26.3 489.391 26.3C488.738 26.3 487.945 26.37 487.011 26.51C486.125 26.6033 485.448 26.72 484.981 26.86V55H474.551V20.14C476.418 19.4867 478.611 18.88 481.131 18.32C483.698 17.7133 486.545 17.41 489.671 17.41C490.231 17.41 490.908 17.4567 491.701 17.55C492.495 17.5967 493.288 17.69 494.081 17.83C494.875 17.9233 495.668 18.0633 496.461 18.25C497.255 18.39 497.931 18.5767 498.491 18.81L496.741 27.42ZM501.649 36.87C501.649 33.6033 502.139 30.7567 503.119 28.33C504.146 25.8567 505.476 23.8033 507.109 22.17C508.742 20.5367 510.609 19.3 512.709 18.46C514.856 17.62 517.049 17.2 519.289 17.2C524.516 17.2 528.646 18.81 531.679 22.03C534.712 25.2033 536.229 29.8933 536.229 36.1C536.229 36.7067 536.206 37.3833 536.159 38.13C536.112 38.83 536.066 39.46 536.019 40.02H512.359C512.592 42.1667 513.596 43.87 515.369 45.13C517.142 46.39 519.522 47.02 522.509 47.02C524.422 47.02 526.289 46.8567 528.109 46.53C529.976 46.1567 531.492 45.7133 532.659 45.2L534.059 53.67C533.499 53.95 532.752 54.23 531.819 54.51C530.886 54.79 529.836 55.0233 528.669 55.21C527.549 55.4433 526.336 55.63 525.029 55.77C523.722 55.91 522.416 55.98 521.109 55.98C517.796 55.98 514.902 55.49 512.429 54.51C510.002 53.53 507.972 52.2 506.339 50.52C504.752 48.7933 503.562 46.7633 502.769 44.43C502.022 42.0967 501.649 39.5767 501.649 36.87ZM526.149 32.88C526.102 31.9933 525.939 31.13 525.659 30.29C525.426 29.45 525.029 28.7033 524.469 28.05C523.956 27.3967 523.279 26.86 522.439 26.44C521.646 26.02 520.642 25.81 519.429 25.81C518.262 25.81 517.259 26.02 516.419 26.44C515.579 26.8133 514.879 27.3267 514.319 27.98C513.759 28.6333 513.316 29.4033 512.989 30.29C512.709 31.13 512.499 31.9933 512.359 32.88H526.149Z" fill="#FCAC00"/>
</svg>
